<svg xmlns="http://www.w3.org/2000/svg" class="main tool-link" viewBox="180.38055419921875 -18.337090213944464 732.6527709960938 549.6269849933186" overflow="hidden" tabindex="0" xmlns:inkscape="http://www.inkscape.org/namespaces/inkscape" xmlns:sodipodi="http://sodipodi.sourceforge.net/DTD/sodipodi-0.dtd">
<sodipodi:namedview id="namedview44" pagecolor="#80a080" inkscape:export-bgcolor="#80a080FF"/><style>@font-face {
    font-family: 'Indie Flower';
    src: url('/indieflower-webfont.woff2') format('woff2'),
         url('/indieflower-webfont.woff') format('woff');
    font-weight: normal;
    font-style: normal;
}

@media print
{
    #dialogApp, #keyboardApp, #toolboxApp, #debugApp {
        display: none !important;
    }
}

html {
    background-color: #80a080;
}

svg {
    background: #80a080;
}

body {
    margin: 0;
}

#app {
    margin: 0 auto;
    width: 100%;
}

g.scribble path {
    fill: none;
    stroke: #000000;
    stroke-width: 2px;
}

g.scribble path.selectTarget {
    stroke-width: 10px;
    opacity: 0;
}

g.link path {
    fill: none;
    stroke: #000000;
    stroke-width: 1px;
    stroke-dasharray: 4 1
}

g.link path.selectTarget {
    stroke-width: 10px;
    opacity: 0;
    stroke-dasharray: 0;
}

path.link-preview {
    stroke: #000000;
    opacity: 0.4;
    stroke-width: 1px;
    stroke-dasharray: 4 1;
}

text.label {
    fill: #000000;
    text-anchor: middle;
    dominant-baseline: hanging;
    font-size: 16px;
}

.tool-select path.selectTarget:hover {
    stroke: #000000;
    opacity: 0.4;
}

.tool-select g.selected path.editTarget {
    stroke: #FFFFFF;
    opacity: 0.2;
}

.tool-select g.selected path.selectTarget:hover {
    stroke: #000000;
    opacity: 0.5;
}

.tool-select use.icon:hover, .tool-link use.icon:hover {
    
}

.tool-select g.selected use.icon {
    
}

.tool-select g.selected use.icon:hover {
    
}

.tool-label use.icon:hover {
    cursor: text;
}

.tool-icon.main {
    cursor: crosshair;
}

.alternatives {
    display: grid;
    grid-template: 1fr / 1fr;
    place-items: center;

    width: 100vw;
    height: calc(100vh - 5px); /* no idea why the 5px is needed to get rid of vertical scrollbar in firefox... */
}

.alternatives > .alternative {
    grid-column: 1 / 1;
    grid-row: 1 / 1;
}

.alternative {
    width: 100%;
    height: 100%;
    transition: opacity 600ms;
}

.alternative > div {
    height: 100%;
}

.alternative.active {
    opacity: 100;
}

.alternative.inactive {
    opacity: 0;
}

.alternative.hidden {
    display: none;
}

svg.main {
    background-color: #80a080;
    width: 100vw;
    height: calc(100vh - 5px); /* no idea why the 5px is needed to get rid of vertical scrollbar in firefox... */
}

.dialog {
    z-index: 3;
    position: fixed;
    width: 100%;
    height: 100%;
    display: flex;
    justify-content: center;
    flex-direction: column;
    text-align: center;
    align-items: center;
}

.dialog > div {
    background-color: #ADD7CD;
    border: 2px solid #000000;
    max-width: 1000px;
    box-shadow: 5px 5px 10px rgba(0, 0, 0, 0.5);
    padding: 5px;
}

.icon-dialog .results {
    width: 100%;
    height: 100px;
    overflow-y: scroll;
    scrollbar-color: #000000 #000000;
}

.icon-dialog .result {
    width: 30px;
    height: 30px;
    cursor: pointer;
}

.keyboard-hints {
    position: fixed;
    z-index: 3;
    bottom: 10px;
    left: 10px;
    display: flex;
    justify-content: flex-end;
    flex-direction: column-reverse; /* We want later-added keyboard shortcuts to appear above older ones */
}

#debugApp {
    position: fixed;
    z-index: 3;
    bottom: 10px;
    right: 10px;
}

.keyboard-hints .key {
    width: 2em;
    border: 1px solid #000000;
    color: #000000;
    background-color: #ADD7CD;
    margin: 2px 10px 2px 2px;
    display: inline-grid;
    align-items: center;
    justify-items: center;
    box-shadow: 2px 2px 4px rgba(0, 0, 0, 0.5);
    cursor: pointer;
}

.keyboard-hints .active .key {
    background-color: #FFFFFF;
}

.keyboard-hints .description {
    display: inline;
    text-shadow: 2px 2px 2px rgba(0, 0, 0, 0.5);
    color: #FFFFFF;
}

.icon-preview {
    
}

div.label-input {
    position: fixed;
    z-index: 3;
}

div.label-input input {
    text-align: center;
    background-color: #ADD7CD;
    border: 1px solid #000000;
    outline: none;
}

div.label-input input:focus {
    outline: none;
}

.toolbox {
    position: fixed;
    z-index: 3;
    top: 10px;
    left: 10px;

    border-radius: 20px;

    background-color: #000000;
    border: 1px solid #000000;
    box-shadow: 5px 5px 10px rgba(0, 0, 0, 0.5);

    display: grid;
    grid-template-columns: 100%;
    grid-row-gap: 1px;
}

.tool:first-child > div {
    border-radius: 20px 20px 0px 0px;
}

.tool:last-child > div {
    border-radius: 0px 0px 20px 20px;
}

.tool > div {
    width: 1.5em;
    height: 1.5em;
    font-size: 200%;

    display: grid;
    align-items: center;
    justify-items: center;

    color: #000000;
    background-color: #ADD7CD;
    cursor: pointer;
}

.tool > input {
    display: none;
}

.tool > input:checked + div {
    background-color: #FFFFFF;
}

.tool > div > label {
    display: block;
    text-align: center;
    cursor: pointer;
}

div.disconnected {
    display: flex;
    justify-content: center;
    flex-direction: column;
    text-align: center;
}

div.loading {
    color: #521412;
    background-color: #A88362;

    display: flex;
    justify-content: center;
    flex-direction: column;
    text-align: center;
}


html, svg {
    

    

    
    
    
}

g.icon text.label, div.label-input input {
    font-family: Indie Flower;
}

/* https://codepen.io/sosuke/pen/Pjoqqp for other colors  */
g.selection-crosshair {
    
}
</style><symbol xmlns="http://www.w3.org/2000/svg" viewBox="0 0 512 512" aria-labelledby="bkasi-game-originals-gears-title" id="si-game-originals-gears"><title id="bkasi-game-originals-gears-title">icon originals-gears</title><path d="M0 0h512v512H0z"/><path d="M179.625 22.313L163.22 58.937a87.676 87.676 0 0 0-9.72-.624c-10.577-.066-20.857 1.808-30.47 5.28L99.78 31.032 55.75 63.188l24.063 33.657a87.946 87.946 0 0 0-14.5 35.75l-42.72 4.687 5.345 54.25 45.468-5A89.896 89.896 0 0 0 94 213.502l-19.406 43.375 49.375 22.094 19.5-43.564c11.656 1.242 23.08.128 33.75-3l28.124 38.53 31.72-23.186 11.655 20.156A209.02 209.02 0 0 0 209.624 307l-49.22-28.344-25.718 46.72 48.125 27.937a206.71 206.71 0 0 0-14.343 53.812H112.5v53.72h56.22a204.365 204.365 0 0 0 8.03 35.06h169.312c-23.915-10.758-40.562-34.788-40.562-62.717 0-37.964 30.754-68.75 68.72-68.75 37.963 0 68.75 30.786 68.75 68.75 0 27.93-16.67 51.96-40.595 62.718h91.5V200.375l-11.688-6.406L454.594 242A204.25 204.25 0 0 0 401 227.28v-55.53h-53.72v55.47c-18.303 2.377-35.83 7.183-52.31 14.03l-27.126-47.28-36 20.25-9.25-12.97a88.715 88.715 0 0 0 15.5-31.72l44.437-4.843-5.342-54.25-42.25 4.157A89.013 89.013 0 0 0 212.376 81.5L229 44.406l-49.375-22.093zm-27.344 84.25c23.3-.24 42.94 17.827 44.376 41.343 1.48 24.275-17.004 45.144-41.28 46.625-24.278 1.483-45.145-16.974-46.626-41.25-1.48-24.274 16.973-45.142 41.25-46.624.76-.046 1.53-.086 2.28-.094z" fill="#fff" fill-rule="evenodd"/></symbol>
<symbol xmlns="http://www.w3.org/2000/svg" viewBox="0 0 38 36" aria-labelledby="abjsi-windows-arcade-button-title" id="si-windows-arcade-button"><title id="abjsi-windows-arcade-button-title">icon arcade-button</title><path d="M19 0c8.062 0 14.639 5.936 14.986 13.382L34 13c0-2.8-.881-5.41-2.399-7.598C35.526 8.608 38 13.288 38 18.5 38 28.165 29.493 36 19 36S0 28.165 0 18.5c0-5.212 2.474-9.892 6.399-13.098C4.881 7.59 4 10.2 4 13l.014.382C4.361 5.937 10.938 0 19 0zm15 14c0 7.732-6.716 14-15 14-8.284 0-15-6.268-15-14v4c0 7.732 6.716 13.5 15 13.5 8.284 0 15-5.768 15-13.5v-4z"/></symbol>
<symbol xmlns="http://www.w3.org/2000/svg" viewBox="0 0 15.612157821655273 16.002742767333984" aria-labelledby="apsi-oct-broadcast-title" id="si-oct-broadcast"><title id="apsi-oct-broadcast-title">icon broadcast</title><path d="M9.612 9.003h-1c.55 0 1-.45 1-1v-1c0-.55-.45-1-1-1h-1c-.55 0-1 .45-1 1v1c0 .55.45 1 1 1h-1c-.55 0-1 .45-1 1v2h1v3c0 .55.45 1 1 1h1c.55 0 1-.45 1-1v-3h1v-2c0-.55-.45-1-1-1zm-2-2h1v1h-1v-1zm2 4h-1v4h-1v-4h-1v-1h3v1zm2.09-3.5c0-1.98-1.61-3.59-3.59-3.59a3.593 3.593 0 0 0-3.5 4.4v1.98c-.61-.77-1-1.73-1-2.8 0-2.48 2.02-4.5 4.5-4.5s4.5 2.02 4.5 4.5c0 1.06-.39 2.03-1 2.8v-1.98c.06-.27.09-.53.09-.81zm3.91 0c0 2.88-1.63 5.38-4 6.63v-1.05a6.553 6.553 0 0 0 3.09-5.58 6.59 6.59 0 0 0-6.59-6.59 6.59 6.59 0 0 0-6.59 6.59c0 2.36 1.23 4.42 3.09 5.58v1.05a7.497 7.497 0 0 1 3.5-14.13c4.14 0 7.5 3.36 7.5 7.5z"/></symbol>
<symbol xmlns="http://www.w3.org/2000/svg" viewBox="0 0 272 448" aria-labelledby="aewsi-ionic-android-walk-title" id="si-ionic-android-walk"><title id="aewsi-ionic-android-walk-title">icon android-walk</title><path d="M168 80c22.223 0 39.997-17.776 39.997-40 0-22.225-17.774-40-39.997-40s-40.003 17.775-40.003 40c0 22.224 17.78 40 40.003 40zm0 120h104v-40h-72l-44.802-69.333C147.5 79 137.062 72.531 124.265 72.531c-3.198 0-8.828.531-12.799 1.747L0 112v112h40v-80l40.531-16L0 448h40l56.698-164.271L147 352v96h38V320l-57.031-96 19.745-61.864L168 200z"/></symbol>
<symbol xmlns="http://www.w3.org/2000/svg" viewBox="0 0 11 16" aria-labelledby="dosi-oct-light-bulb-title" id="si-oct-light-bulb"><title id="dosi-oct-light-bulb-title">icon light-bulb</title><path d="M5.5 0C2.48 0 0 2.19 0 5c0 .92.55 2.25 1 3 1.34 2.25 1.78 2.78 2 4v1h5v-1c.22-1.22.66-1.75 2-4 .45-.75 1-2.08 1-3 0-2.81-2.48-5-5.5-5zm3.64 7.48c-.25.44-.47.8-.67 1.11-.86 1.41-1.25 2.06-1.45 3.23-.02.05-.02.11-.02.17H4c0-.06 0-.13-.02-.17-.2-1.17-.59-1.83-1.45-3.23-.2-.31-.42-.67-.67-1.11C1.44 6.78 1 5.65 1 5c0-2.2 2.02-4 4.5-4 1.22 0 2.36.42 3.22 1.19C9.55 2.94 10 3.94 10 5c0 .66-.44 1.78-.86 2.48zM3 14h5c-.23 1.14-1.3 2-2.5 2s-2.27-.86-2.5-2z"/></symbol>
<symbol xmlns="http://www.w3.org/2000/svg" viewBox="0 0 40 38" aria-labelledby="aptsi-material-hot-tub-title" id="si-material-hot-tub"><title id="aptsi-material-hot-tub-title">icon hot-tub</title><g transform="translate(-4 -6)"><circle cx="14" cy="12" r="4"/><path d="M22.3 24c-.61-.45-1.17-.93-1.64-1.44l-2.8-3.1a4.29 4.29 0 0 0-1.38-1 4.45 4.45 0 0 0-1.92-.46h-.06c-2.48 0-4.5 2.02-4.5 4.5V24H4v16c0 2.21 1.79 4 4 4h32c2.21 0 4-1.79 4-4V24H22.3zM14 40h-4V28h4v12zm8 0h-4V28h4v12zm8 0h-4V28h4v12zm8 0h-4V28h4v12zm-.69-28.29l-.14-.13c-1.15-1.23-1.63-2.82-1.34-4.39L36 6h-3.78l-.13.85c-.41 2.72.54 5.43 2.6 7.43l.13.12c1.15 1.23 1.64 2.83 1.35 4.4l-.22 1.2h3.83l.13-.85c.4-2.72-.54-5.43-2.6-7.44zm-8 0l-.14-.13c-1.15-1.23-1.63-2.82-1.34-4.39L28 6h-3.78l-.13.85c-.41 2.72.54 5.43 2.6 7.43l.13.12c1.15 1.23 1.64 2.83 1.35 4.4l-.22 1.2h3.83l.13-.85c.4-2.72-.54-5.43-2.6-7.44z"/></g></symbol>
<symbol xmlns="http://www.w3.org/2000/svg" viewBox="0 0 896 1024" aria-labelledby="bssi-metro-broadcast-title" id="si-metro-broadcast"><title id="bssi-metro-broadcast-title">icon broadcast</title><path d="M448 192c142 0 256 115 256 256 0 69-28 132-72 178l-16 93c91-56 152-156 152-271 0-177-143-320-320-320S128 271 128 448c0 115 61 215 152 271l-16-93c-45-46-72-109-72-178 0-142 114-256 256-256zm-64 320c-36 0-64 29-64 64v128c0 36 30 64 64 64v256h128V768c34 0 64-28 64-64V576c0-35-28-64-64-64H384zm192-128c0-71-57-128-128-128s-128 57-128 128 57 128 128 128 128-57 128-128zM448 0C201 0 0 201 0 448c0 197 128 363 305 423l-12-72C158 739 64 605 64 448 64 236 236 64 448 64s384 172 384 384c0 157-94 291-229 351l-12 72c177-60 305-225 305-423C896 201 695 0 448 0z"/></symbol>
<symbol xmlns="http://www.w3.org/2000/svg" viewBox="0 0 34.93075942993164 40.57080841064453" aria-labelledby="bresi-windows-thermometer-celcius-title" id="si-windows-thermometer-celcius"><title id="bresi-windows-thermometer-celcius-title">icon thermometer-celcius</title><path d="M16.5 31a5.5 5.5 0 1 1-6.5-5.41V13h2v12.59A5.503 5.503 0 0 1 16.5 31zm3.5 0a9 9 0 1 1-13-8.064V4a4 4 0 1 1 8 0v18.935A9 9 0 0 1 20 31zM9 24.29a7 7 0 1 0 4 0V4a2 2 0 0 0-4 0v20.29zM6 3v1H0V3h6zm0 3v1H2V6h4zm0 3v1H0V9h6zm0 3v1H2v-1h4zm0 3v1H0v-1h6zm0 3v1H2v-1h4zm0 3v1H0v-1h6zm21.827-1.502c-.943.46-2.175.689-3.696.689-1.985 0-3.545-.587-4.681-1.76-1.136-1.172-1.703-2.733-1.703-4.683 0-2.079.638-3.765 1.916-5.058 1.277-1.293 2.935-1.94 4.973-1.94 1.262 0 2.325.164 3.19.49v2.87c-.851-.497-1.821-.746-2.91-.746-1.196 0-2.16.375-2.895 1.126-.734.75-1.101 1.767-1.101 3.05 0 1.231.346 2.212 1.038 2.942.693.73 1.625 1.095 2.797 1.095 1.118 0 2.142-.248 3.072-.746v2.671zm4.474-7.711c-.727 0-1.344-.246-1.85-.738a2.412 2.412 0 0 1-.758-1.797c0-.704.253-1.297.759-1.78.505-.484 1.122-.725 1.849-.725.723 0 1.34.241 1.852.724.511.484.767 1.077.767 1.781a2.4 2.4 0 0 1-.767 1.797 2.575 2.575 0 0 1-1.852.738zm.006-3.734c-.313 0-.578.117-.795.35a1.21 1.21 0 0 0-.325.855c0 .336.108.624.325.863.217.24.482.359.795.359.307 0 .57-.12.79-.359.22-.239.33-.527.33-.863a1.21 1.21 0 0 0-.325-.855 1.044 1.044 0 0 0-.795-.35z"/></symbol><g class="drawing"><g class=""><g id="iconAY6zHHDScA+GtdJ422YmKw" class="icon editTarget" transform="translate(269.51007080078125,352.02101135253906)"><g class="selectTarget"><use href="#si-windows-thermometer-celcius" class="icon" width="64" height="64" x="-32" y="-32"><title>windows-thermometer-celcius</title></use></g><text class="label" x="0" y="32">Temperature sensor</text></g></g><g class=""><g id="iconAY6zHRBCfcuc8rBQYUHfBQ" class="icon editTarget" transform="translate(426.1384582519531,246.72900390625)"><g class="selectTarget"><use href="#si-metro-broadcast" class="icon" width="64" height="64" x="-32" y="-32"><title>metro-broadcast</title></use></g><text class="label" x="0" y="32">OOK Relay</text></g></g><g class=""><g id="iconAY6zHS7mfNSyFbzyk4mc7A" class="icon editTarget" transform="translate(718.441650390625,361.9739685058594)"><g class="selectTarget"><use href="#si-oct-broadcast" class="icon" width="64" height="64" x="-32" y="-32"><title>oct-broadcast</title></use></g><text class="label" x="0" y="32">FSK Relay</text></g></g><g class=""><g id="iconAY6zHWFaeXKPVSs1nHLKWg" class="icon editTarget" transform="translate(560.24169921875,257.205810546875)"><g class="selectTarget"><use href="#si-game-originals-gears" class="icon" width="64" height="64" x="-32" y="-32"><title>game-originals-gears</title></use></g><text class="label" x="0" y="32">Controller</text></g></g><g class=""><g id="iconAY6zHeCZdW6lqM5VREEXLw" class="icon editTarget" transform="translate(856.735595703125,360.4024658203125)"><g class="selectTarget"><use href="#si-material-hot-tub" class="icon" width="64" height="64" x="-32" y="-32"><title>material-hot-tub</title></use></g><text class="label" x="0" y="32">Heater</text></g></g><g class=""><g id="iconAY6zHgz+ejyag1yW1MpoCg" class="icon editTarget" transform="translate(280.5107116699219,244.63365173339844)"><g class="selectTarget"><use href="#si-ionic-android-walk" class="icon" width="64" height="64" x="-32" y="-32"><title>ionic-android-walk</title></use></g><text class="label" x="0" y="32">Alarm sensor</text></g></g><g class=""><g id="iconAY6zHkpDe5KAmYa6IbBffA" class="icon editTarget" transform="translate(336.037841796875,128.3409881591797)"><g class="selectTarget"><use href="#si-windows-arcade-button" class="icon" width="64" height="64" x="-32" y="-32"><title>windows-arcade-button</title></use></g><text class="label" x="0" y="32">FS20 buttons</text></g></g><g class=""><g id="iconAY6zHx/LeKm5fq0NxOZnLA" class="icon editTarget" transform="translate(439.2344970703125,353.592529296875)"><g class="selectTarget"><use href="#si-metro-broadcast" class="icon" width="64" height="64" x="-32" y="-32"><title>metro-broadcast</title></use></g><text class="label" x="0" y="32">FSK Relay</text></g></g><g class=""><g id="iconAY6zIBCNcx+I8XM7oLJPxA" class="icon editTarget" transform="translate(716.3462524414062,251.44357299804688)"><g class="selectTarget"><use href="#si-oct-broadcast" class="icon" width="64" height="64" x="-32" y="-32"><title>oct-broadcast</title></use></g><text class="label" x="0" y="32">OOK Relay</text></g></g><g class=""><g id="iconAY6zIFXNd0uSYmRUo+O9xA" class="icon editTarget" transform="translate(856.2117309570312,223.6800079345703)"><g class="selectTarget"><use href="#si-oct-light-bulb" class="icon" width="64" height="64" x="-32" y="-32"><title>oct-light-bulb</title></use></g><text class="label" x="0" y="32">FS20 Lights</text></g></g><g class=""><g id="linkAY6zIJPIeB+0hsQUBmHZaQ" class="link"><path d="M 372.09596965956734 181.29461669921875L 397.9791653725099 209.72900390625"/><path class="selectTarget editTarget" d="M 372.09596965956734 181.29461669921875L 397.9791653725099 209.72900390625"/></g></g><g class=""><g id="linkAY6zIKTHdDGozmPLsn6Xcw" class="link"><path d="M 302.0532684326172 352.3223363896512L 406.2344970703125 353.2869746203741"/><path class="selectTarget editTarget" d="M 302.0532684326172 352.3223363896512L 406.2344970703125 353.2869746203741"/></g></g><g class=""><g id="linkAY6zINKNfPOxGG9Gwdjm+g" class="link"><path d="M 304.9392852783203 244.9851401412836L 393.1384582519531 246.25418627480948"/><path class="selectTarget editTarget" d="M 304.9392852783203 244.9851401412836L 393.1384582519531 246.25418627480948"/></g></g><g class=""><g id="linkAY6zIN0hdAqYwumPa+C3FA" class="link"><path d="M 472.2344970703125 327.30680694087664L 530.4264526367188 286.96614149874915"/><path class="selectTarget editTarget" d="M 472.2344970703125 327.30680694087664L 530.4264526367188 286.96614149874915"/></g></g><g class=""><g id="linkAY6zIOO+d1yp9BKs565EpA" class="link"><path d="M 459.1384582519531 249.3071266767968L 523.24169921875 254.31518804656494"/><path class="selectTarget editTarget" d="M 459.1384582519531 249.3071266767968L 523.24169921875 254.31518804656494"/></g></g><g class=""><g id="linkAY6zIOpKdZ6z2Upd5r7eWg" class="link"><path d="M 597.24169921875 255.84004135625733L 681.3440246582031 252.73559906045986"/><path class="selectTarget editTarget" d="M 597.24169921875 255.84004135625733L 681.3440246582031 252.73559906045986"/></g></g><g class=""><g id="linkAY6zIPRwcVS0bdykaRMeqQ" class="link"><path d="M 590.0569458007812 283.42445598193547L 683.4394226074219 338.7936899903315"/><path class="selectTarget editTarget" d="M 590.0569458007812 283.42445598193547L 683.4394226074219 338.7936899903315"/></g></g><g class=""><g id="linkAY6zIQ+QfOCbNN87Tl4Jzw" class="link"><path d="M 751.3484802246094 244.49556381994918L 829.2117309570312 229.03955958855565"/><path class="selectTarget editTarget" d="M 751.3484802246094 244.49556381994918L 829.2117309570312 229.03955958855565"/></g></g><g class=""><g id="linkAY6zIRa+evyRRR9ToCy0qQ" class="link"><path d="M 753.4438781738281 361.57622083269024L 819.735595703125 360.8229151699485"/><path class="selectTarget editTarget" d="M 753.4438781738281 361.57622083269024L 819.735595703125 360.8229151699485"/></g></g></g></svg>